<svg xmlns="http://www.w3.org/2000/svg" version="1.1" xmlns:xlink="http://www.w3.org/1999/xlink" xmlns:svgjs="http://svgjs.dev/svgjs" width="100%" height="100%" viewBox="0 0 1000 600"><rect width="1000" height="600" x="0" y="0" fill="#040536"/><g><circle r="166.66666666666666" cx="413.7231089274088" cy="435.9452855616373" fill="#7fffd4" transform="matrix(0.5059573930182986,0,0,0.5059573930182986,0,79.4302674480108)"/><path d="M464.94220521047293 510.94530225113317L464.94220521047293 510.94530225113317Q456.68377824418076 510.94530225113317 448.1893962217089 508.8891224758522Q439.69501419923694 506.7992348354028 432.886025435192 504.1363134870882L432.886025435192 504.1363134870882Q421.7287220644055 499.5183359589983 409.96467712058524 493.9565382061893Q398.20063217676505 488.36103258821174 390.68377824418076 485.2262011275376L390.68377824418076 485.2262011275376Q387.9871490306976 484.01271798147025 384.00962094081 482.66440337472864Q379.9983849857538 481.3160887679871 377.06580071609085 480.372268543268L377.06580071609085 480.372268543268Q374.1669243115965 482.2936168578747 369.447823188001 485.6981112398972Q364.69501419923694 489.1026056219197 359.1332164464279 491.76552697023425L359.1332164464279 491.76552697023425Q355.22310408687736 493.72058315000953 351.7174861093493 494.563279779223Q348.21186813182123 495.4059764084365 345.2792838621583 495.4059764084365L345.2792838621583 495.4059764084365Q339.447823188001 495.4059764084365 336.17816026665264 492.60822359944774Q332.90849734530434 489.810470790459 332.90849734530434 486.17002135225675L332.90849734530434 486.17002135225675Q332.90849734530434 483.0351898915826 335.09950858125944 480.60822359944774L335.09950858125944 480.60822359944774Q339.21186813182123 475.75429101517807 344.6725422891246 474.03518989158255Q350.1332164464279 472.3497966331556 356.200632176765 472.3497966331556L356.200632176765 472.3497966331556Q366.14445240148416 472.3497966331556 376.8298456599111 475.01271798147025L376.8298456599111 475.01271798147025Q383.1332164464279 469.45092022866123 389.57141869361897 459.4733921387736Q396.00962094081 449.5295719140545 402.447823188001 437.2936168578747Q408.886025435192 425.02395393652637 415.6613063340684 412.4172123634927Q422.47029509811335 399.7767629252904 429.51523891833807 389.36103258821174L429.51523891833807 389.36103258821174Q434.36917150260774 382.0801337118073 440.30175577227067 375.6419314646163Q446.2343400419336 369.2037292174253 453.41411532283246 365.0913696668635Q460.5601827385628 360.94530225113317 469.05456476103467 360.94530225113317L469.05456476103467 360.94530225113317Q478.29051981721443 360.94530225113317 480.95344116552906 366.54080786911067L480.95344116552906 366.54080786911067Q481.69501419923694 368.22620112753765 481.69501419923694 369.2037292174253L481.69501419923694 369.2037292174253Q481.69501419923694 370.65316741967246 480.48153105316953 370.65316741967246L480.48153105316953 370.65316741967246Q479.5040029632819 370.65316741967246 478.29051981721443 368.4621561837174L478.29051981721443 368.4621561837174Q477.5489467835066 366.7767629252904 473.4365872329448 366.7767629252904L473.4365872329448 366.7767629252904Q470.03209285092237 366.7767629252904 465.6500703790122 367.9902460713579L465.6500703790122 367.9902460713579Q458.133216446428 370.4172123634927 450.24557599698977 378.17002135225675Q442.35793554755156 385.9565382061893 435.077036671147 396.372268543268L435.077036671147 396.372268543268Q428.0320928509223 406.3497966331556 420.75119397451783 418.48462809382977Q413.47029509811335 430.6194595545039 406.4590591430572 442.24867303765Q399.41411532283246 453.9115943859646 393.11074453631556 463.1138415769758Q386.7736658846302 472.3497966331556 381.447823188001 476.7318191050657L381.447823188001 476.7318191050657Q393.3466995924954 480.372268543268 405.58265464867515 485.93406629607694Q417.85231757002344 491.5295719140545 429.6163625138437 496.38350449832416Q441.38040745766386 501.23743708259383 452.06580071609085 503.4284483185489L452.06580071609085 503.4284483185489Q458.63883442395604 504.8778865207961 464.7062501542931 504.8778865207961L464.7062501542931 504.8778865207961Q480.48153105316953 504.8778865207961 487.4927670082257 497.3610325882118L487.4927670082257 497.3610325882118Q491.4028793677763 493.45092022866123 491.4028793677763 487.8891224758523L491.4028793677763 487.8891224758523Q491.4028793677763 482.7992348354028 488.2343400419336 477.2037292174253L488.2343400419336 477.2037292174253Q486.0433288059785 473.563279779223 480.21186813182123 468.8441786556275Q474.41411532283246 464.09136966686344 468.8186097048549 462.4059764084365L468.8186097048549 462.4059764084365Q468.0770366711471 462.4059764084365 468.0770366711471 461.66440337472864L468.0770366711471 461.66440337472864Q468.0770366711471 461.1924932623691 468.68377824418076 460.5857516893354Q469.29051981721443 459.97901011630165 470.2680479071021 460.21496517248147L470.2680479071021 460.21496517248147Q476.57141869361897 461.9003584309084 482.5377108284504 467.02395393652637Q488.47029509811335 472.11384157697586 490.6613063340684 475.75429101517807L490.6613063340684 475.75429101517807Q494.53771082845043 482.5295719140545 494.53771082845043 488.59698764439156L494.53771082845043 488.59698764439156Q494.53771082845043 498.81047079045896 485.8073737497988 504.8778865207961Q477.0770366711471 510.94530225113317 464.94220521047293 510.94530225113317ZM344.57141869361897 492.7430550601219L344.57141869361897 492.7430550601219Q348.68377824418076 492.7430550601219 353.53771082845043 490.7879988803466Q358.3916434127201 488.86665056573986 360.0770366711471 487.8891224758523L360.0770366711471 487.8891224758523Q363.48153105316953 485.93406629607694 366.6500703790122 483.7430550601219Q369.78490183968637 481.5857516893354 372.7174861093493 478.8891224758522L372.7174861093493 478.8891224758522Q369.0770366711471 477.9453022511331 365.6725422891246 477.43968427360505Q362.26804790710213 476.96777416124553 358.8635535250796 476.96777416124553L358.8635535250796 476.96777416124553Q353.30175577227067 476.96777416124553 348.5489467835066 478.7879988803466Q343.8298456599111 480.60822359944774 340.6613063340684 485.2262011275376L340.6613063340684 485.2262011275376Q339.7174861093493 486.17002135225675 339.7174861093493 488.59698764439156L339.7174861093493 488.59698764439156Q339.7174861093493 490.7879988803466 341.1669243115965 491.76552697023425Q342.6163625138437 492.7430550601219 344.57141869361897 492.7430550601219Z " fill="#072c50" transform="matrix(0.5059573930182986,0,0,0.5059573930182986,0,79.4302674480108)"/><path d="M698.6733506057087 488.5572358587237L698.6733506057087 488.5572358587237Q697.9892710275207 488.5572358587237 696.6522063974257 488.09081796450454L696.6522063974257 488.09081796450454Q696.6522063974257 488.09081796450454 693.1696194539225 485.4166887043146Q689.7181270367006 482.74255944412465 684.6808137791335 478.8246491326836Q679.6435005215664 474.90673882124247 674.6061872639993 470.8644504046763Q669.5688740064322 466.8221619881101 666.2106651680541 464.14803272792017L666.2106651680541 464.14803272792017Q663.7231030655519 462.1268885196371 663.7231030655519 460.7898238895421L663.7231030655519 460.7898238895421Q663.7231030655519 459.23509757547816 667.0813119039299 456.9962916832261L667.0813119039299 456.9962916832261Q677.6223563132833 450.49753569043895 688.1323061963553 443.56345632971386Q698.6733506057087 436.5982824427075 709.6186238567187 430.3482826601705L709.6186238567187 430.3482826601705Q710.5203651188758 429.8818647659514 710.7380268028448 429.8818647659514L710.7380268028448 429.8818647659514Q711.6397680650018 429.8818647659514 711.6397680650018 430.7836060281084L711.6397680650018 430.7836060281084Q711.6397680650018 432.80475023639156 709.4009621727498 433.92415318251756L709.4009621727498 433.92415318251756Q706.7268329125599 435.4788794965815 700.7877783928357 439.5211679131477Q694.8487238731116 443.56345632971386 687.7902664072612 448.8184312712499Q680.7629034676925 454.0734062127859 674.4818091588742 459.45275925944713L674.4818091588742 459.45275925944713Q676.5029533671573 463.7127093599822 681.1982268356303 468.9676843015183Q685.8935003041033 474.22265924305435 690.8375299828266 478.8246491326836Q695.7504651352685 483.3955444960315 698.4245943954586 486.1007682825027L698.4245943954586 486.1007682825027Q699.5439973415846 486.9714150183785 699.5439973415846 487.87315628053557L699.5439973415846 487.87315628053557Q699.5439973415846 488.5572358587237 698.6733506057087 488.5572358587237ZM875.2902598833701 510.9452947812441L875.2902598833701 510.9452947812441Q867.7031954707381 510.9452947812441 859.867374847856 509.0485286780862Q852.0315542249738 507.1206680486469 845.7504599161556 504.66420047242593L845.7504599161556 504.66420047242593Q835.4581717170524 500.4042503718908 824.6061820448863 495.27365353547987Q813.7230978464389 490.11196217278757 806.7890184857138 487.2201712286287L806.7890184857138 487.2201712286287Q804.3325509094927 486.1007682825027 800.6323022820206 484.8569872312516Q796.9320536545484 483.6132061800004 794.2579243943586 482.74255944412465L794.2579243943586 482.74255944412465Q791.5837951341686 484.5149474421575 787.1994669285084 487.65549459656665Q782.8462332491293 490.79604175097575 777.6845418864372 493.2525093271968L777.6845418864372 493.2525093271968Q774.1086713640901 495.0559918515109 770.8748406308372 495.83335500854287Q767.6099153713029 496.6107181655748 764.935786111113 496.6107181655748L764.935786111113 496.6107181655748Q759.5564330644519 496.6107181655748 756.5402640151678 494.0298724842287Q753.5240949658839 491.4490268028826 753.5240949658839 488.09081796450454L753.5240949658839 488.09081796450454Q753.5240949658839 485.1990270203456 755.5141446478857 482.9602211280936L755.5141446478857 482.9602211280936Q759.3387713804829 478.4826093435895 764.37608463805 476.8967885032443Q769.4133978956171 475.34206218918035 775.0104126262472 475.34206218918035L775.0104126262472 475.34206218918035Q784.1832978792244 475.34206218918035 794.0402627103896 477.7985297654014L794.0402627103896 477.7985297654014Q799.8549391249886 472.66793292899047 805.7939936447128 463.46395314973205Q811.733048164437 454.2910678967549 817.6410081578799 443.00375485665086Q823.5800626776041 431.6853472902655 829.8611569864223 420.05599446106737Q836.1111567689593 408.395547105588 842.6099127617465 398.78733848467294L842.6099127617465 398.78733848467294Q847.0875245462506 392.0709208079168 852.5912556980369 386.13186628819267Q858.0638923235418 380.19281176846846 864.6559318951728 376.3992795621525Q871.2790659930852 372.57465282955525 879.1148866159673 372.57465282955525L879.1148866159673 372.57465282955525Q887.6036922907563 372.57465282955525 890.0912543932586 377.7363441922475L890.0912543932586 377.7363441922475Q890.7442394451655 379.29107050631137 890.7442394451655 380.19281176846846L890.7442394451655 380.19281176846846Q890.7442394451655 381.5298763985635 889.6248364990394 381.5298763985635L889.6248364990394 381.5298763985635Q888.7230952368824 381.5298763985635 887.6036922907563 379.5087321902804L887.6036922907563 379.5087321902804Q886.9507072388495 377.95400587621646 883.1260805062523 377.95400587621646L883.1260805062523 377.95400587621646Q880.0166278781244 377.95400587621646 875.9743394615582 379.07340882234246L875.9743394615582 379.07340882234246Q869.040260100833 381.31221471459446 861.7641409510139 388.4639557592885Q854.4880218011948 395.64679133026385 847.7716041244387 405.2549999511789L847.7716041244387 405.2549999511789Q841.2728481316515 414.45897973043725 834.5564304548953 425.6530091916975Q827.8400127781392 436.84703865295774 821.341256785352 447.5746502199988Q814.8425007925649 458.3333563133211 809.0278243779658 466.8221619881101Q803.2131479633667 475.34206218918035 798.3002128109248 479.3843506057466L798.3002128109248 479.3843506057466Q809.2454860619347 482.74255944412465 820.5638936283201 487.87315628053557Q831.8823011947054 493.0348476432278 842.7342908668716 497.51245942773187Q853.5862805390377 501.990071212236 863.443245370203 504.0112154205191L863.443245370203 504.0112154205191Q869.475583468771 505.34828005061405 875.0725981994011 505.34828005061405L875.0725981994011 505.34828005061405Q889.6248364990394 505.34828005061405 896.1235924918266 498.41420068988896L896.1235924918266 498.41420068988896Q899.6994630141736 494.80723564126066 899.6994630141736 489.67663880484974L899.6994630141736 489.67663880484974Q899.6994630141736 484.9813653363767 896.8076720700147 479.8196739736845L896.8076720700147 479.8196739736845Q894.7865278617317 476.4614651353064 889.4071748150706 472.1082314559274Q884.0278217684094 467.7239032502672 878.8972249319984 466.16917693620326L878.8972249319984 466.16917693620326Q878.2131453538102 466.16917693620326 878.2131453538102 465.48509735801514L878.2131453538102 465.48509735801514Q878.2131453538102 465.04977399007726 878.7728468268732 464.49007251701426Q879.3325482999363 463.9303710439512 880.2342895620933 464.14803272792017L880.2342895620933 464.14803272792017Q886.0489659766923 465.7027590419841 891.5216026021974 470.4291270367384Q897.0253337539837 475.12440050521144 899.0464779622667 478.4826093435895L899.0464779622667 478.4826093435895Q902.6223484846138 484.7326091261265 902.6223484846138 490.32962385675654L902.6223484846138 490.32962385675654Q902.6223484846138 499.75126531998393 894.5688661777627 505.34828005061405Q886.4842893446303 510.9452947812441 875.2902598833701 510.9452947812441ZM764.2517065329249 494.1542505893538L764.2517065329249 494.1542505893538Q768.0763332655222 494.1542505893538 772.5539450500263 492.3507680650397Q777.0315568345303 490.57838006700683 778.5862831485942 489.67663880484974L778.5862831485942 489.67663880484974Q781.7268303030033 487.87315628053557 784.6186212471623 485.8520120722525Q787.5415067176024 483.86196239025065 790.2156359777924 481.37440028774836L790.2156359777924 481.37440028774836Q786.8574271394143 480.5037535518726 783.7479745112864 480.03733565765344Q780.6074273568773 479.6020122897155 777.4668802024682 479.6020122897155L777.4668802024682 479.6020122897155Q772.305188839776 479.6020122897155 767.951955160397 481.28111670890456Q763.5987214810181 482.9602211280936 760.6758360105779 487.2201712286287L760.6758360105779 487.2201712286287Q759.7740947484208 488.09081796450454 759.7740947484208 490.32962385675654L759.7740947484208 490.32962385675654Q759.7740947484208 492.3507680650397 761.1111593785158 493.2525093271968Q762.4793185348921 494.1542505893538 764.2517065329249 494.1542505893538ZM916.272845522095 498.1654444796387L916.272845522095 498.1654444796387Q912.2305571055289 498.1654444796387 910.458169107496 495.4913152194488Q908.6546865831818 492.81718595925884 908.6546865831818 488.77489754269266L908.6546865831818 488.77489754269266Q908.6546865831818 485.63435038828356 909.3387661613699 482.74255944412465L909.3387661613699 482.74255944412465Q909.7740895293078 481.37440028774836 911.6708556324658 476.0261417673685Q913.5987162619051 470.6467887207074 916.832546995158 464.14803272792017Q920.066377728411 457.64927673513296 923.8910044610083 452.8296251615348Q927.6845366673241 448.041068114218 931.7268250838904 448.041068114218L931.7268250838904 448.041068114218Q933.4992130819232 448.041068114218 933.4992130819232 448.91171485009374L933.4992130819232 448.91171485009374Q933.4992130819232 449.81345611225083 932.6285663460475 450.7151973744079L932.6285663460475 450.7151973744079Q928.1509545615434 456.0945504210691 924.2330442501022 463.3706695708882Q920.3151339386612 470.6467887207074 917.7342882573151 477.14554471349453Q915.153442575969 483.6132061800004 914.7181192080311 486.9714150183785L914.7181192080311 486.9714150183785Q914.0340396298429 494.1542505893538 918.946974782285 494.1542505893538L918.946974782285 494.1542505893538Q923.2069248828201 494.1542505893538 928.0265764564182 490.23634027791275Q932.8462280300164 486.3184299664716 937.4171233933642 480.1617137627785Q942.0191132829935 474.00499755908544 945.3773221213715 467.28857988232926L945.3773221213715 467.28857988232926Q948.9531926437186 460.3545005216042 953.2131427442538 454.1977843179111Q957.473092844789 448.041068114218 961.950704629293 448.041068114218L961.950704629293 448.041068114218Q963.7230926273259 448.041068114218 963.7230926273259 448.91171485009374L963.7230926273259 448.91171485009374Q963.7230926273259 449.81345611225083 962.85244589145 450.7151973744079L962.85244589145 450.7151973744079Q958.374834106946 456.0945504210691 954.4569237955048 463.3706695708882Q950.5390134840638 470.6467887207074 947.9581678027176 477.14554471349453Q945.3773221213715 483.6132061800004 944.9419987534337 486.9714150183785L944.9419987534337 486.9714150183785Q944.2579191752455 494.1542505893538 949.1708543276876 494.1542505893538L949.1708543276876 494.1542505893538Q954.1148840064108 494.1542505893538 959.2454808428218 489.67663880484974Q964.407172205514 485.1990270203456 968.884783990018 479.3843506057466Q973.3623957745223 473.53857966486623 976.0365250347121 469.5273857745813L976.0365250347121 469.5273857745813Q976.9382662968691 468.62564451242423 977.1559279808381 468.62564451242423L977.1559279808381 468.62564451242423Q977.8400075590263 468.62564451242423 977.8400075590263 469.7450474585503L977.8400075590263 469.7450474585503Q977.8400075590263 470.6467887207074 977.1559279808381 471.7661916668334L977.1559279808381 471.7661916668334Q973.5800574584911 477.5808680814324 968.542744200924 483.73758428512554Q963.5054309433568 489.89430048881866 957.9084162127268 494.0298724842287Q952.3114014820966 498.1654444796387 946.4967250674976 498.1654444796387L946.4967250674976 498.1654444796387Q942.4544366509314 498.1654444796387 940.6820486528985 495.4913152194488Q938.8785661285845 492.81718595925884 938.8785661285845 488.77489754269266L938.8785661285845 488.77489754269266Q938.8785661285845 485.63435038828356 939.5626457067725 482.74255944412465L939.5626457067725 482.74255944412465L939.9979690747105 480.72141523584156Q935.7380189741754 486.3184299664716 931.1671236108274 490.79604175097575Q926.5651337211981 495.27365353547987 922.0875219366941 496.82837984954375L922.0875219366941 496.82837984954375Q918.729313098316 498.1654444796387 916.272845522095 498.1654444796387ZM1000.2280664815468 432.1206706582034L1000.2280664815468 432.1206706582034Q997.0875193271376 432.1206706582034 996.4345342752307 428.32713845188744L996.4345342752307 428.32713845188744Q996.1857780649805 426.52365592757326 998.6733401674827 424.7512679295404Q1001.1298077437037 422.9477854052263 1002.6845340577677 422.29480035331943L1002.6845340577677 422.29480035331943Q1003.8039370038938 421.8283824591002 1004.4880165820819 421.6107207751313Q1005.1410016339887 421.39305909116234 1005.6074195282077 421.39305909116234L1005.6074195282077 421.39305909116234Q1007.1621458422718 421.39305909116234 1007.1621458422718 422.9477854052263L1007.1621458422718 422.9477854052263Q1007.1621458422718 424.7512679295404 1005.9494593173018 427.20773550576143Q1004.7056782660508 429.6642030819824 1004.7056782660508 429.6642030819824L1004.7056782660508 429.6642030819824Q1004.4880165820819 430.5659443441395 1003.1509519519868 431.34330750117147Q1001.7827927956106 432.1206706582034 1000.2280664815468 432.1206706582034ZM977.8400075590263 498.1654444796387L977.8400075590263 498.1654444796387Q973.7977191424601 498.1654444796387 972.0253311444272 495.4913152194488Q970.2218486201131 492.81718595925884 970.2218486201131 488.77489754269266L970.2218486201131 488.77489754269266Q970.2218486201131 485.63435038828356 970.9059281983012 482.74255944412465L970.9059281983012 482.74255944412465Q971.3412515662391 481.37440028774836 973.238017669397 476.0261417673685Q975.1658782988362 470.6467887207074 978.3997090320892 464.14803272792017Q981.6335397653422 457.64927673513296 985.4581664979395 452.8296251615348Q989.2516987042554 448.041068114218 993.2939871208216 448.041068114218L993.2939871208216 448.041068114218Q995.0663751188545 448.041068114218 995.0663751188545 448.91171485009374L995.0663751188545 448.91171485009374Q995.0663751188545 449.81345611225083 994.1957283829787 450.7151973744079L994.1957283829787 450.7151973744079Q989.7181165984746 456.0945504210691 985.8002062870336 463.3706695708882Q981.8822959755925 470.6467887207074 979.3014502942464 477.14554471349453Q976.7206046129003 483.6132061800004 976.2852812449623 486.9714150183785L976.2852812449623 486.9714150183785Q975.6012016667743 494.1542505893538 980.5141368192161 494.1542505893538L980.5141368192161 494.1542505893538Q981.1982163974043 494.1542505893538 981.8822959755925 494.0298724842287Q982.5352810274993 493.93658890538484 983.4370222896563 493.6878326951346L983.4370222896563 493.6878326951346Q988.1322957581294 492.1331063810707 992.6099075426336 487.87315628053557Q997.0875193271376 483.6132061800004 1000.9121460597348 478.4826093435895Q1004.7056782660508 473.3209179808973 1007.1621458422718 469.5273857745813L1007.1621458422718 469.5273857745813Q1008.0638871044288 468.62564451242423 1008.2815487883978 468.62564451242423L1008.2815487883978 468.62564451242423Q1008.965628366586 468.62564451242423 1008.965628366586 469.7450474585503L1008.965628366586 469.7450474585503Q1008.965628366586 470.8644504046763 1008.2815487883978 471.9838533508023L1008.2815487883978 471.9838533508023Q1003.3686136359557 479.6020122897155 996.7454795380435 486.9714150183785Q990.1534399664125 494.3719122733228 983.6546839736253 496.82837984954375L983.6546839736253 496.82837984954375Q980.2964751352473 498.1654444796387 977.8400075590263 498.1654444796387ZM1021.932045825879 500.1865886879218L1021.932045825879 500.1865886879218Q1017.236772357406 500.1865886879218 1013.5365237299338 499.53360363601496Q1009.867369628743 498.84952405782684 1008.0638871044288 498.1654444796387L1008.0638871044288 498.1654444796387Q1005.6074195282077 497.29479774376296 1004.3636384769567 495.83335500854287Q1003.1509519519868 494.3719122733228 1003.1509519519868 493.2525093271968L1003.1509519519868 493.2525093271968Q1003.1509519519868 491.69778301313283 1004.7056782660508 491.69778301313283L1004.7056782660508 491.69778301313283Q1005.8250812121768 491.69778301313283 1007.3798075262407 493.0348476432278L1007.3798075262407 493.0348476432278Q1010.5203546806498 495.7089769034177 1013.44324015109 496.1753947976369L1013.44324015109 496.1753947976369Q1015.899707727311 496.1753947976369 1019.9419961438772 495.36693711432366Q1023.953190034162 494.5895739572917 1025.5390108745073 493.0348476432278L1025.5390108745073 493.0348476432278Q1028.2131401346974 490.32962385675654 1028.2131401346974 487.65549459656665L1028.2131401346974 487.65549459656665Q1028.2131401346974 485.8520120722525 1027.2181152936964 484.1729076530635Q1026.1919959264142 482.4938032338744 1024.419607928381 480.9390769198105L1024.419607928381 480.9390769198105Q1021.496722457941 478.4826093435895 1018.573836987501 475.9017636622434Q1015.682046043342 473.3209179808973 1013.660901835059 470.1803708264882L1013.660901835059 470.1803708264882Q1010.5203546806498 465.26743567404617 1010.5203546806498 460.57216220557314L1010.5203546806498 460.57216220557314Q1010.5203546806498 453.38932663459786 1015.340006254248 447.1393268520609Q1020.1596578278462 440.85823254324265 1025.756672558476 436.84703865295774L1025.756672558476 436.84703865295774Q1031.7890106570444 432.5870885524226 1038.0701049658624 432.5870885524226L1038.0701049658624 432.5870885524226Q1041.4283138042406 432.5870885524226 1044.3201047483994 434.0485312876427Q1047.2429902188396 435.4788794965815 1048.7977165329035 438.6194266509906L1048.7977165329035 438.6194266509906Q1049.0464727431538 439.08584454520974 1049.0464727431538 439.7388295971166L1049.0464727431538 439.7388295971166Q1049.0464727431538 441.07589422721156 1048.1447314809966 441.54231212143077Q1047.2429902188396 441.97763548936865 1046.8076668509016 440.6405708592737L1046.8076668509016 440.6405708592737Q1045.4395076945254 437.06470033692665 1039.4071695959574 437.06470033692665L1039.4071695959574 437.06470033692665Q1035.8312990736104 437.06470033692665 1031.6957270782004 438.4017649670216Q1027.5290605565092 439.7388295971166 1025.072592980288 441.54231212143077L1025.072592980288 441.54231212143077Q1017.4544340413748 447.3569885360298 1017.4544340413748 456.52987378900696L1017.4544340413748 456.52987378900696Q1017.4544340413748 463.02862978179417 1021.71438414191 468.19032114448635L1021.71438414191 468.19032114448635Q1024.6372696123503 471.7661916668334 1027.8711003456033 474.7823607161174Q1031.1360256051375 477.7985297654014 1033.3748314973896 480.59703713071644Q1035.6136373896416 483.3955444960315 1034.9295578114534 486.1007682825027L1034.9295578114534 486.1007682825027Q1033.8101548653274 491.01370343494466 1028.5551799237915 494.0298724842287Q1023.3002049822552 497.0460415335127 1018.8225931977512 497.51245942773187L1018.8225931977512 497.51245942773187Q1020.1596578278462 497.73012111170084 1023.7355283501931 497.73012111170084L1023.7355283501931 497.73012111170084Q1036.4842841255172 497.73012111170084 1045.5638857996505 489.21022091063054Q1054.6434874737838 480.72141523584156 1062.230551886416 469.0609678803621L1062.230551886416 469.0609678803621Q1062.6969697806348 468.4079828284553 1063.132293148573 468.4079828284553L1063.132293148573 468.4079828284553Q1063.598711042792 468.4079828284553 1063.598711042792 469.5273857745813L1063.598711042792 469.5273857745813Q1063.598711042792 470.8644504046763 1062.479308096666 472.66793292899047L1062.479308096666 472.66793292899047Q1053.9594078955956 485.63435038828356 1044.8798062214623 492.9104695381027Q1035.8312990736104 500.1865886879218 1021.932045825879 500.1865886879218ZM1162.7591553537889 498.84952405782684L1162.7591553537889 498.84952405782684Q1161.2044290397248 498.84952405782684 1160.8623892506307 497.9477827956698Q1160.5203494615369 497.0460415335127 1160.5203494615369 495.9266385873867L1160.5203494615369 495.9266385873867Q1160.5203494615369 492.3507680650397 1161.2977126185688 489.4589771208808Q1162.1061703018822 486.5360916504406 1163.225573248008 481.0634550249356Q1164.344976194134 475.5597238731493 1164.7802995620718 464.8321123061083L1164.7802995620718 464.8321123061083Q1165.2156229300099 457.2139533671951 1165.557662719104 449.03609295521886Q1165.899702508198 440.85823254324265 1165.899702508198 432.5870885524226L1165.899702508198 432.5870885524226Q1165.899702508198 416.6977856226893 1163.5365185108208 401.89679111280077Q1161.2044290397248 387.12689112919355 1154.0215934687496 377.05226461405937L1154.0215934687496 377.05226461405937L1152.2492054707168 375.2798766160265Q1142.3922406395513 376.1505233519023 1133.7790568596374 377.95400587621646Q1125.1658730797233 379.7574884005306 1120.0041817170313 381.7475380825324L1120.0041817170313 381.7475380825324Q1114.407166986401 383.9863439747844 1111.0489581480228 386.56718965613055Q1107.6907493096448 389.14803533747664 1107.6907493096448 392.0709208079168L1107.6907493096448 392.0709208079168Q1107.6907493096448 395.8644530142328 1114.407166986401 399.65798522054877L1114.407166986401 399.65798522054877Q1114.842490354339 400.1244031147679 1114.842490354339 400.55972648270586L1114.842490354339 400.55972648270586Q1114.842490354339 401.2438060608939 1114.407166986401 401.67912942883186Q1113.971843618463 402.145547323051 1113.2877640402749 401.89679111280077L1113.2877640402749 401.89679111280077Q1108.8101522557708 399.4403235365798 1106.695724468644 396.2997763821707Q1104.5502021552356 393.1903237540429 1104.5502021552356 390.2674382836027L1104.5502021552356 390.2674382836027Q1104.5502021552356 386.4739060772867 1107.6907493096448 383.11569723890864Q1110.831296464054 379.7574884005306 1116.428311194684 377.5186825082785L1116.428311194684 377.5186825082785Q1120.688261295219 375.71519998396434 1131.4158728622601 374.16047366990045Q1142.1745789555825 372.57465282955525 1154.4880113629688 371.9216677776484L1154.4880113629688 371.9216677776484Q1155.607414309095 371.2375881994603 1156.602439150096 371.0199265154913Q1157.6285585173778 370.8022648315224 1158.4992052532539 370.8022648315224L1158.4992052532539 370.8022648315224Q1159.8673644096298 370.8022648315224 1161.2044290397248 371.45524988342925L1161.2044290397248 371.45524988342925Q1169.9419909247642 371.2375881994603 1177.6534334425212 371.9216677776484Q1185.3648759602784 372.57465282955525 1190.5265673229705 374.2537572487443Q1195.6882586856627 375.93286166793337 1196.5589054215384 379.29107050631137L1196.5589054215384 379.29107050631137L1196.5589054215384 380.19281176846846Q1196.5589054215384 381.99629429278264 1195.9059203696315 383.8930603959406Q1195.2218407914436 385.7898264990986 1194.5688557395365 385.7898264990986L1194.5688557395365 385.7898264990986Q1193.6671144773795 385.7898264990986 1193.4494527934107 383.3333589228776L1193.4494527934107 383.3333589228776Q1193.2006965831604 380.19281176846846 1189.6248260608133 378.51370734927946Q1186.0489555384665 376.8346029300904 1181.0116422808992 376.1505233519023Q1175.9743290233323 375.4975382999954 1170.8126376606401 375.3731601948703Q1165.6820408242293 375.2798766160265 1162.1061703018822 375.2798766160265L1162.1061703018822 375.2798766160265Q1165.899702508198 379.97515008449955 1168.13850840045 389.83211491566476Q1170.377314292702 399.65798522054877 1171.2790555548593 412.09579573306013Q1172.1807968170162 424.5336062455715 1172.1807968170162 437.06470033692665L1172.1807968170162 437.06470033692665Q1172.1807968170162 452.2699236884718 1171.154677449734 465.14305756892105Q1170.1596526087333 478.0161914493703 1169.040249662607 483.86196239025065L1169.040249662607 483.86196239025065Q1172.1807968170162 478.4826093435895 1179.5501995456793 467.63061967142335Q1186.9506968006235 456.74753547297587 1196.8076616317887 443.22141654061977Q1206.6335319366726 429.6642030819824 1216.9569146620572 416.4490294124391L1216.9569146620572 416.4490294124391Q1230.6074116995383 399.0050001686419 1243.0141276857685 384.8880852369415Q1255.4519381982798 370.8022648315224 1263.7230821890998 363.61942926054707L1263.7230821890998 363.61942926054707Q1265.308903029445 362.2823646304521 1267.205669132603 361.598285052264Q1269.102435235761 360.9453000003571 1270.221838181887 360.9453000003571L1270.221838181887 360.9453000003571Q1271.558902811982 360.9453000003571 1271.558902811982 361.8470412625142L1271.558902811982 361.8470412625142Q1271.558902811982 362.50002631442106 1270.221838181887 363.83709094451604L1270.221838181887 363.83709094451604Q1256.7890028283748 377.2699262980283 1243.2628838960186 392.1642043867607Q1229.7056704373813 407.058482475493 1217.827561397933 421.8283824591002L1217.827561397933 421.8283824591002Q1208.001691093049 433.92415318251756 1198.9220894189157 446.6729089578417Q1189.8424877447824 459.45275925944713 1183.0327864891824 471.2997737726142Q1176.191990707301 483.17788281206253 1173.0514435528921 492.5684297490086L1173.0514435528921 492.5684297490086Q1172.1807968170162 495.4913152194488 1169.040249662607 497.1704196386378Q1165.899702508198 498.84952405782684 1162.7591553537889 498.84952405782684ZM1235.9867647461997 432.1206706582034L1235.9867647461997 432.1206706582034Q1232.8462175917903 432.1206706582034 1232.162138013602 428.32713845188744L1232.162138013602 428.32713845188744Q1231.9444763296333 426.52365592757326 1234.4009439058543 424.7512679295404Q1236.8574114820753 422.9477854052263 1238.4432323224205 422.29480035331943L1238.4432323224205 422.29480035331943Q1239.5626352685465 421.8283824591002 1240.2156203204534 421.6107207751313Q1240.8996998986415 421.39305909116234 1241.3350232665794 421.39305909116234L1241.3350232665794 421.39305909116234Q1242.9208441069245 421.39305909116234 1242.9208441069245 422.9477854052263L1242.9208441069245 422.9477854052263Q1242.9208441069245 424.7512679295404 1241.6770630556734 427.20773550576143Q1240.4643765307037 429.6642030819824 1240.4643765307037 429.6642030819824L1240.4643765307037 429.6642030819824Q1240.2156203204534 430.5659443441395 1238.8785556903586 431.34330750117147Q1237.5414910602635 432.1206706582034 1235.9867647461997 432.1206706582034ZM1213.5987058236792 498.1654444796387L1213.5987058236792 498.1654444796387Q1209.5564174071128 498.1654444796387 1207.7529348827989 495.4913152194488Q1205.9805468847658 492.81718595925884 1205.9805468847658 488.77489754269266L1205.9805468847658 488.77489754269266Q1205.9805468847658 485.63435038828356 1206.6335319366726 482.74255944412465L1206.6335319366726 482.74255944412465Q1207.099949830892 481.37440028774836 1208.99671593405 476.0261417673685Q1210.8934820372078 470.6467887207074 1214.158407296742 464.14803272792017Q1217.392238029995 457.64927673513296 1221.1857702363109 452.8296251615348Q1225.0103969689083 448.041068114218 1229.021590859193 448.041068114218L1229.021590859193 448.041068114218Q1230.8250733835073 448.041068114218 1230.8250733835073 448.91171485009374L1230.8250733835073 448.91171485009374Q1230.8250733835073 449.81345611225083 1229.9233321213503 450.7151973744079L1229.9233321213503 450.7151973744079Q1225.445720336846 456.0945504210691 1221.527810025405 463.3706695708882Q1217.6098997139638 470.6467887207074 1215.0290540326178 477.14554471349453Q1212.479302877553 483.6132061800004 1212.012884983334 486.9714150183785L1212.012884983334 486.9714150183785Q1211.359899931427 494.1542505893538 1216.272835083869 494.1542505893538L1216.272835083869 494.1542505893538Q1216.9569146620572 494.1542505893538 1217.6098997139638 494.0298724842287Q1218.293979292152 493.93658890538484 1219.1957205543092 493.6878326951346L1219.1957205543092 493.6878326951346Q1223.8909940227823 492.1331063810707 1228.3686058072863 487.87315628053557Q1232.8462175917903 483.6132061800004 1236.6397497981063 478.4826093435895Q1240.4643765307037 473.3209179808973 1242.9208441069245 469.5273857745813L1242.9208441069245 469.5273857745813Q1243.8225853690817 468.62564451242423 1244.0402470530505 468.62564451242423L1244.0402470530505 468.62564451242423Q1244.6932321049576 468.62564451242423 1244.6932321049576 469.7450474585503L1244.6932321049576 469.7450474585503Q1244.6932321049576 470.8644504046763 1244.0402470530505 471.9838533508023L1244.0402470530505 471.9838533508023Q1239.0962173743274 479.6020122897155 1232.5041778026964 486.9714150183785Q1225.9121382310655 494.3719122733228 1219.4133822382782 496.82837984954375L1219.4133822382782 496.82837984954375Q1216.0551733999 498.1654444796387 1213.5987058236792 498.1654444796387ZM1256.136017776468 498.41420068988896L1256.136017776468 498.41420068988896Q1250.7566647298067 498.41420068988896 1247.6161175753978 494.9316137463858Q1244.4755704209886 491.4490268028826 1243.3561674748626 486.1007682825027Q1242.2367645287366 480.72141523584156 1242.4544262127056 475.12440050521144L1242.4544262127056 475.12440050521144Q1243.1385057908935 465.48509735801514 1246.7143763132406 453.1716649506289Q1250.2902468355876 440.85823254324265 1256.011639671343 427.98509866279335Q1261.733032507098 415.1119647823441 1268.760395446667 403.70027363711495Q1275.8188529125168 392.2885824918858 1283.654673535399 383.9863439747844Q1291.4904941582813 375.71519998396434 1299.1086530971947 372.57465282955525L1299.1086530971947 372.57465282955525Q1301.5651206734155 371.45524988342925 1303.36860319773 371.11321009433516Q1305.1409911957626 370.8022648315224 1306.7268120361077 370.8022648315224L1306.7268120361077 370.8022648315224Q1312.1061650827692 370.8022648315224 1313.8785530808018 375.93286166793337L1313.8785530808018 375.93286166793337Q1314.7802943429588 377.7363441922475 1314.7802943429588 380.41047345243743L1314.7802943429588 380.41047345243743Q1314.7802943429588 385.7898264990986 1311.2044238206122 392.9415675437926L1311.2044238206122 392.9415675437926Q1308.0638766662028 399.4403235365798 1302.2492002516037 407.618183948556Q1296.4345238370047 415.7960443605323 1289.1584046871858 424.1915664564774Q1281.8822855373664 432.5870885524226 1274.4817882824223 440.2985310701796Q1267.081291027478 448.041068114218 1260.831291244941 454.0734062127859Q1254.5501969361228 460.105744311354 1250.7566647298067 463.2462914657631L1250.7566647298067 463.2462914657631Q1249.4196000997117 470.6467887207074 1249.4196000997117 477.14554471349453L1249.4196000997117 477.14554471349453Q1249.4196000997117 484.0796240742196 1251.7516895708077 489.21022091063054Q1254.114873568185 494.3719122733228 1259.711888298815 494.3719122733228L1259.711888298815 494.3719122733228Q1265.0912413454762 494.3719122733228 1270.221838181887 490.11196217278757Q1275.3835295445792 485.8520120722525 1279.7367632239584 480.03733565765344Q1284.1210914296184 474.22265924305435 1287.0128823737773 469.7450474585503L1287.0128823737773 469.7450474585503Q1287.9146236359343 468.8433061963932 1288.132285319903 468.8433061963932L1288.132285319903 468.8433061963932Q1288.8163648980913 468.8433061963932 1288.8163648980913 469.9627091425192L1288.8163648980913 469.9627091425192Q1288.8163648980913 470.8644504046763 1288.132285319903 471.9838533508023L1288.132285319903 471.9838533508023Q1284.1210914296184 478.26494765962053 1279.177061750895 484.29728575818854Q1274.264126598453 490.32962385675654 1268.4494501838542 494.3719122733228Q1262.6036792429738 498.41420068988896 1256.136017776468 498.41420068988896ZM1251.6584059919637 459.45275925944713L1251.6584059919637 459.45275925944713Q1256.5713411444058 454.975147474943 1264.531539872413 446.6729089578417Q1272.460644074139 438.4017649670216 1281.073827854053 428.32713845188744Q1289.7181061602487 418.25251193675325 1296.8698472049427 408.5199252107131Q1304.0215882496368 398.78733848467294 1307.3797970880146 391.1691795457598L1307.3797970880146 391.1691795457598Q1308.747956244391 388.4639557592885 1309.6186029802666 385.3545031311607Q1310.520344242424 382.21395597675155 1310.520344242424 379.5087321902804L1310.520344242424 379.5087321902804Q1310.520344242424 374.59579703783834 1306.944473720077 374.59579703783834L1306.944473720077 374.59579703783834Q1302.031538567635 374.59579703783834 1293.7293000505333 382.4316176607205L1293.7293000505333 382.4316176607205Q1284.5564147975565 390.9515178617908 1276.036514596486 404.04231342620903Q1267.547708921697 417.1331089906272 1261.173331034035 431.5609691851404Q1254.7678586200918 446.01992390593483 1251.6584059919637 459.45275925944713ZM1300.2280560433205 498.41420068988896L1300.2280560433205 498.41420068988896Q1294.8487029966595 498.41420068988896 1291.7081558422506 494.9316137463858Q1288.5987032141225 491.4490268028826 1287.4793002679967 486.1007682825027Q1286.3598973218704 480.72141523584156 1286.5775590058392 475.12440050521144L1286.5775590058392 475.12440050521144Q1287.230544057746 465.48509735801514 1290.8375091063745 453.1716649506289Q1294.4133796287215 440.85823254324265 1300.1036779381957 427.98509866279335Q1305.8250707739508 415.1119647823441 1312.8835282398009 403.70027363711495Q1319.941985705651 392.2885824918858 1327.7778063285332 383.9863439747844Q1335.6136269514154 375.71519998396434 1343.2006913640475 372.57465282955525L1343.2006913640475 372.57465282955525Q1345.6882534665497 371.45524988342925 1347.4606414645827 371.11321009433516Q1349.2641239888967 370.8022648315224 1350.8188503029605 370.8022648315224L1350.8188503029605 370.8022648315224Q1356.198203349622 370.8022648315224 1358.001685873936 375.93286166793337L1358.001685873936 375.93286166793337Q1358.8723326098116 377.7363441922475 1358.8723326098116 380.41047345243743L1358.8723326098116 380.41047345243743Q1358.8723326098116 385.7898264990986 1355.2964620874645 392.9415675437926L1355.2964620874645 392.9415675437926Q1352.1559149330556 399.4403235365798 1346.3412385184565 407.618183948556Q1340.5265621038575 415.7960443605323 1333.2504429540381 424.1915664564774Q1325.9743238042192 432.5870885524226 1318.573826549275 440.2985310701796Q1311.2044238206122 448.041068114218 1304.9233295117938 454.0734062127859Q1298.6733297292567 460.105744311354 1294.8487029966595 463.2462914657631L1294.8487029966595 463.2462914657631Q1293.5116383665645 470.6467887207074 1293.5116383665645 477.14554471349453L1293.5116383665645 477.14554471349453Q1293.5116383665645 484.0796240742196 1295.8748223639418 489.21022091063054Q1298.2069118350378 494.3719122733228 1303.8039265656676 494.3719122733228L1303.8039265656676 494.3719122733228Q1309.183279612329 494.3719122733228 1314.3449709750212 490.11196217278757Q1319.475567811432 485.8520120722525 1323.859896017092 480.03733565765344Q1328.2131296964712 474.22265924305435 1331.1360151669114 469.7450474585503L1331.1360151669114 469.7450474585503Q1332.006661902787 468.8433061963932 1332.2554181130372 468.8433061963932L1332.2554181130372 468.8433061963932Q1332.908403164944 468.8433061963932 1332.908403164944 469.9627091425192L1332.908403164944 469.9627091425192Q1332.908403164944 470.8644504046763 1332.2554181130372 471.9838533508023L1332.2554181130372 471.9838533508023Q1328.2131296964712 478.26494765962053 1323.3001945440292 484.29728575818854Q1318.3561648653058 490.32962385675654 1312.5414884507068 494.3719122733228Q1306.7268120361077 498.41420068988896 1300.2280560433205 498.41420068988896ZM1295.7504442588165 459.45275925944713L1295.7504442588165 459.45275925944713Q1300.6633794112586 454.975147474943 1308.6235781392656 446.6729089578417Q1316.5837768672732 438.4017649670216 1325.196960647187 428.32713845188744Q1333.8101444271015 418.25251193675325 1340.9618854717955 408.5199252107131Q1348.1447210427705 398.78733848467294 1351.5029298811487 391.1691795457598L1351.5029298811487 391.1691795457598Q1352.8399945112437 388.4639557592885 1353.7417357734007 385.3545031311607Q1354.6434770355577 382.21395597675155 1354.6434770355577 379.5087321902804L1354.6434770355577 379.5087321902804Q1354.6434770355577 374.59579703783834 1351.0365119869298 374.59579703783834L1351.0365119869298 374.59579703783834Q1346.1235768344877 374.59579703783834 1337.8524328436674 382.4316176607205L1337.8524328436674 382.4316176607205Q1328.6484530644093 390.9515178617908 1320.1596473896202 404.04231342620903Q1311.6397471885498 417.1331089906272 1305.2653693008879 431.5609691851404Q1298.8909914132255 446.01992390593483 1295.7504442588165 459.45275925944713ZM1366.956909442944 498.1654444796387L1366.956909442944 498.1654444796387Q1362.914621026378 498.1654444796387 1361.01785492322 495.4913152194488Q1359.1210888200621 492.81718595925884 1359.1210888200621 488.5572358587237L1359.1210888200621 488.5572358587237Q1359.1210888200621 485.63435038828356 1359.7740738719685 482.74255944412465L1359.7740738719685 482.74255944412465Q1359.9917355559378 482.27614154990545 1360.4581534501567 480.59703713071644Q1360.8934768180948 478.9179327115274 1361.7952180802517 476.6791268192754L1361.7952180802517 476.6791268192754Q1358.6546709258428 481.6231564979986 1353.8350193522447 487.5311164914415Q1349.046462304928 493.4701710111657 1343.2006913640475 496.39305648160587L1343.2006913640475 496.39305648160587Q1339.8424825256693 497.9477827956698 1336.4842736872915 497.9477827956698L1336.4842736872915 497.9477827956698Q1332.006661902787 497.9477827956698 1329.332532642597 494.49629037844784Q1326.6584033824074 491.01370343494466 1326.6584033824074 484.7326091261265L1326.6584033824074 484.7326091261265Q1326.6584033824074 479.6020122897155 1328.8972092746594 473.66295776999135Q1331.1360151669114 467.7239032502672 1335.3648707411653 461.4739034677302L1335.3648707411653 461.4739034677302Q1338.0700945276362 457.43161505116404 1342.3300446281714 453.63808284484804Q1346.5589002024253 449.81345611225083 1351.5029298811487 447.3569885360298Q1356.4158650335908 444.90052095980883 1360.8934768180948 444.90052095980883L1360.8934768180948 444.90052095980883Q1365.3710886025988 444.90052095980883 1368.5116357570078 447.3569885360298Q1371.6521829114172 449.81345611225083 1371.869844595386 454.7574857909741L1371.869844595386 454.7574857909741Q1371.869844595386 455.41047084288095 1371.310143122323 455.752510631975Q1370.7504416492602 456.0945504210691 1370.3151182813222 455.192809158912L1370.3151182813222 455.192809158912Q1367.6098944948508 449.160471060344 1361.577556396283 449.160471060344L1361.577556396283 449.160471060344Q1357.5352679797165 449.160471060344 1353.0576561952125 452.8296251615348Q1348.5800444107085 456.52987378900696 1344.3200943101733 462.1268885196371Q1340.0912387359194 467.7239032502672 1336.9506915815105 473.3209179808973L1336.9506915815105 473.3209179808973Q1334.245467795039 478.26494765962053 1333.0327812700693 482.27614154990545Q1331.7890002188183 486.3184299664716 1331.7890002188183 489.21022091063054L1331.7890002188183 489.21022091063054Q1331.7890002188183 495.27365353547987 1336.4842736872915 495.27365353547987L1336.4842736872915 495.27365353547987Q1338.9718357897937 495.27365353547987 1341.8636267339525 493.6878326951346L1341.8636267339525 493.6878326951346Q1344.5688505204234 492.1331063810707 1348.4867608318646 488.09081796450454Q1352.4046711433057 484.0796240742196 1356.3225814547468 479.13559439549635Q1360.240491766188 474.22265924305435 1363.4743224994409 469.5273857745813Q1366.7081532326938 464.8321123061083 1368.293974073039 462.1268885196371L1368.293974073039 462.1268885196371Q1371.6521829114172 456.52987378900696 1375.2280534337642 452.2699236884718Q1378.8039239561112 448.041068114218 1382.3797944784583 448.041068114218L1382.3797944784583 448.041068114218Q1384.1832770027722 448.041068114218 1384.1832770027722 448.91171485009374L1384.1832770027722 448.91171485009374Q1384.1832770027722 449.81345611225083 1383.2815357406153 450.7151973744079L1383.2815357406153 450.7151973744079Q1378.8039239561112 456.0945504210691 1374.8860136446701 463.3706695708882Q1370.968103333229 470.6467887207074 1368.387257651883 477.14554471349453Q1365.8375064968182 483.6132061800004 1365.3710886025988 486.9714150183785L1365.3710886025988 486.9714150183785Q1364.718103550692 494.1542505893538 1369.631038703134 494.1542505893538L1369.631038703134 494.1542505893538Q1370.3151182813222 494.1542505893538 1370.968103333229 494.0298724842287Q1371.6521829114172 493.93658890538484 1372.5539241735742 493.6878326951346L1372.5539241735742 493.6878326951346Q1377.249197642047 492.1331063810707 1381.7268094265514 487.87315628053557Q1386.2044212110554 483.6132061800004 1389.9979534173713 478.57589292243335Q1393.8225801499684 473.53857966486623 1396.2790477261897 469.7450474585503L1396.2790477261897 469.7450474585503Q1396.9320327780965 468.8433061963932 1397.398450672316 468.8433061963932L1397.398450672316 468.8433061963932Q1398.0514357242223 468.8433061963932 1398.0514357242223 469.9627091425192L1398.0514357242223 469.9627091425192Q1398.0514357242223 470.6467887207074 1397.398450672316 471.7661916668334L1397.398450672316 471.7661916668334Q1395.8126298319703 474.00499755908544 1394.4755652018757 476.1194253462123Q1393.1385005717807 478.26494765962053 1391.8014359416857 480.03733565765344L1391.8014359416857 480.03733565765344Q1391.3350180474663 480.9390769198105 1390.6820329955594 481.6231564979986Q1389.9979534173713 482.27614154990545 1389.3449683654644 483.17788281206253L1389.3449683654644 483.17788281206253Q1386.4220828950242 486.75375333440957 1381.820093005395 490.8893253298196Q1377.249197642047 495.0559918515109 1372.771585857543 496.82837984954375L1372.771585857543 496.82837984954375Q1369.4133770191652 498.1654444796387 1366.956909442944 498.1654444796387ZM1409.494221395733 498.41420068988896L1409.494221395733 498.41420068988896Q1404.114868349072 498.41420068988896 1400.9743211946625 494.9316137463858Q1397.8337740402535 491.4490268028826 1396.7143710941277 486.1007682825027Q1395.5949681480015 480.72141523584156 1395.8126298319703 475.12440050521144L1395.8126298319703 475.12440050521144Q1396.4967094101585 465.48509735801514 1400.0725799325055 453.1716649506289Q1403.6484504548525 440.85823254324265 1409.369843290608 427.98509866279335Q1415.0912361263631 415.1119647823441 1422.118599065932 403.70027363711495Q1429.1770565317825 392.2885824918858 1437.0128771546642 383.9863439747844Q1444.8486977775465 375.71519998396434 1452.46685671646 372.57465282955525L1452.46685671646 372.57465282955525Q1454.9233242926807 371.45524988342925 1456.7268068169951 371.11321009433516Q1458.4991948150277 370.8022648315224 1460.085015655373 370.8022648315224L1460.085015655373 370.8022648315224Q1465.4643687020343 370.8022648315224 1467.236756700067 375.93286166793337L1467.236756700067 375.93286166793337Q1468.138497962224 377.7363441922475 1468.138497962224 380.41047345243743L1468.138497962224 380.41047345243743Q1468.138497962224 385.7898264990986 1464.562627439877 392.9415675437926L1464.562627439877 392.9415675437926Q1461.422080285468 399.4403235365798 1455.607403870869 407.618183948556Q1449.7927274562699 415.7960443605323 1442.5166083064505 424.1915664564774Q1435.2404891566316 432.5870885524226 1427.839991901687 440.2985310701796Q1420.4394946467428 448.041068114218 1414.1894948642062 454.0734062127859Q1407.9084005553877 460.105744311354 1404.114868349072 463.2462914657631L1404.114868349072 463.2462914657631Q1402.7778037189769 470.6467887207074 1402.7778037189769 477.14554471349453L1402.7778037189769 477.14554471349453Q1402.7778037189769 484.0796240742196 1405.1098931900729 489.21022091063054Q1407.4730771874497 494.3719122733228 1413.07009191808 494.3719122733228L1413.07009191808 494.3719122733228Q1418.449444964741 494.3719122733228 1423.5800418011522 490.11196217278757Q1428.7417331638444 485.8520120722525 1433.0949668432231 480.03733565765344Q1437.4792950488836 474.22265924305435 1440.3710859930425 469.7450474585503L1440.3710859930425 469.7450474585503Q1441.2728272551994 468.8433061963932 1441.4904889391682 468.8433061963932L1441.4904889391682 468.8433061963932Q1442.1745685173564 468.8433061963932 1442.1745685173564 469.9627091425192L1442.1745685173564 469.9627091425192Q1442.1745685173564 470.8644504046763 1441.4904889391682 471.9838533508023L1441.4904889391682 471.9838533508023Q1437.4792950488836 478.26494765962053 1432.5352653701602 484.29728575818854Q1427.6223302177182 490.32962385675654 1421.8076538031191 494.3719122733228Q1415.9618828622388 498.41420068988896 1409.494221395733 498.41420068988896ZM1405.016609611229 459.45275925944713L1405.016609611229 459.45275925944713Q1409.929544763671 454.975147474943 1417.889743491678 446.6729089578417Q1425.8188476934042 438.4017649670216 1434.4320314733181 428.32713845188744Q1443.0763097795134 418.25251193675325 1450.2280508242075 408.5199252107131Q1457.3797918689015 398.78733848467294 1460.7380007072798 391.1691795457598L1460.7380007072798 391.1691795457598Q1462.106159863656 388.4639557592885 1462.9768065995318 385.3545031311607Q1463.8785478616887 382.21395597675155 1463.8785478616887 379.5087321902804L1463.8785478616887 379.5087321902804Q1463.8785478616887 374.59579703783834 1460.3026773393417 374.59579703783834L1460.3026773393417 374.59579703783834Q1455.3897421869 374.59579703783834 1447.0875036697985 382.4316176607205L1447.0875036697985 382.4316176607205Q1437.9146184168212 390.9515178617908 1429.3947182157513 404.04231342620903Q1420.9059125409622 417.1331089906272 1414.5315346533002 431.5609691851404Q1408.1260622393565 446.01992390593483 1405.016609611229 459.45275925944713ZM1449.1086478780817 499.2848474257647L1449.1086478780817 499.2848474257647Q1445.0663594615153 499.2848474257647 1442.9519316743886 497.73012111170084Q1440.8375038872614 496.1753947976369 1439.7181009411356 493.93658890538484L1439.7181009411356 493.93658890538484Q1438.8163596789786 491.69778301313283 1438.3499417847593 489.33459901575566Q1437.9146184168212 486.9714150183785 1437.9146184168212 484.5149474421575L1437.9146184168212 484.5149474421575Q1437.9146184168212 478.26494765962053 1439.9357626251044 471.4241518777393Q1441.9569068333876 464.58335609585805 1444.7554141987025 458.3333563133211Q1447.5539215640174 452.05226200450284 1449.7927274562699 447.5746502199988L1449.7927274562699 447.5746502199988Q1454.9233242926807 437.96644159908374 1461.6397419694367 428.5448001358564Q1468.3561596461927 419.1542531989103 1476.534020058169 412.31345741702904Q1484.7118804701454 405.5037561614291 1493.4494423551846 403.482611953146L1493.4494423551846 403.482611953146Q1494.5688453013104 403.26495026917706 1495.4394920371865 403.14057216405195Q1496.3412332993435 403.0161940589268 1497.2429745615004 403.0161940589268L1497.2429745615004 403.0161940589268Q1501.0365067678167 403.0161940589268 1503.2753126600687 404.4776367941469Q1505.5141185523207 405.939079529367 1506.198198130509 408.17788542161907L1506.198198130509 408.17788542161907Q1506.198198130509 408.395547105588 1506.3225762356342 408.61320878955695Q1506.4158598144777 408.8619649998072 1506.4158598144777 409.0796266837761L1506.4158598144777 409.0796266837761Q1506.4158598144777 410.63435299784004 1505.5141185523207 410.63435299784004L1505.5141185523207 410.63435299784004Q1504.8611335004139 410.63435299784004 1504.3947156061945 408.8619649998072L1504.3947156061945 408.8619649998072Q1504.1770539222257 407.7425620536811 1502.404665924193 407.1828605806181Q1500.6011833998787 406.6231591075551 1498.3623775076267 406.6231591075551L1498.3623775076267 406.6231591075551Q1490.9618802526825 406.6231591075551 1483.4680994188943 412.8731588900921Q1475.9743185851062 419.1542531989103 1469.040239224381 428.6691782409815Q1462.106159863656 438.1841032830527 1456.5091451330259 448.2587297981869L1456.5091451330259 448.2587297981869Q1455.8250655548377 449.59579442828186 1453.7106377677105 453.855744528817Q1451.5651154543025 458.11569462935216 1449.233025983207 463.46395314973205Q1446.8698419858297 468.8433061963932 1445.3151156717659 473.53857966486623L1445.3151156717659 473.53857966486623Q1444.4133744096084 475.5597238731493 1445.3151156717659 475.5597238731493L1445.3151156717659 475.5597238731493Q1445.7504390397035 475.5597238731493 1446.4345186178916 474.00499755908544L1446.4345186178916 474.00499755908544Q1450.4457125081767 464.58335609585805 1455.949443659963 458.55101799729005Q1461.422080285468 452.51867989872204 1467.236756700067 448.47639148215586L1467.236756700067 448.47639148215586Q1473.051433114666 444.90052095980883 1478.8972040555464 444.90052095980883L1478.8972040555464 444.90052095980883Q1483.1260596298002 444.90052095980883 1486.0489451002404 447.23261043090474Q1488.9718305706806 449.59579442828186 1488.9718305706806 454.975147474943L1488.9718305706806 454.975147474943Q1488.9718305706806 458.98634136522793 1487.3860097303354 463.7127093599822L1487.3860097303354 463.7127093599822Q1485.8312834162716 468.19032114448635 1482.2554128939241 474.00499755908544Q1478.6484478452958 479.8196739736845 1473.6111345877289 485.2923105991895Q1468.573821330162 490.79604175097575 1462.9768065995318 494.5895739572917Q1457.3797918689015 498.41420068988896 1452.0315333485219 499.0671857417958L1452.0315333485219 499.0671857417958Q1451.129792086365 499.2848474257647 1450.4457125081767 499.2848474257647Q1449.7927274562699 499.2848474257647 1449.1086478780817 499.2848474257647ZM1450.4457125081767 496.82837984954375L1450.4457125081767 496.82837984954375Q1455.607403870869 496.82837984954375 1462.323821547625 491.2313651189137L1462.323821547625 491.2313651189137Q1468.822577540412 485.63435038828356 1474.0775524819483 477.9229078705265Q1479.3325274234844 470.1803708264882 1480.4519303696102 463.7127093599822L1480.4519303696102 463.7127093599822Q1481.1360099477984 460.3545005216042 1481.1360099477984 457.8669384191019L1481.1360099477984 457.8669384191019Q1481.1360099477984 452.736341582691 1479.1148657395152 451.1505207423458Q1477.093721531232 449.59579442828186 1474.4195922710423 449.59579442828186L1474.4195922710423 449.59579442828186Q1469.475562592319 449.59579442828186 1464.562627439877 453.63808284484804Q1459.6185977611535 457.64927673513296 1455.4830257657436 463.58833125485717Q1451.3474537703337 469.5273857745813 1448.6733245101436 475.5597238731493Q1445.9681007236723 481.6231564979986 1445.3151156717659 485.63435038828356L1445.3151156717659 485.63435038828356Q1445.0663594615153 486.75375333440957 1444.9730758826718 487.7798727016917Q1444.8486977775465 488.77489754269266 1444.8486977775465 489.67663880484974L1444.8486977775465 489.67663880484974Q1444.8486977775465 496.82837984954375 1450.4457125081767 496.82837984954375ZM1531.9444658914072 498.1654444796387L1531.9444658914072 498.1654444796387Q1527.9021774748412 498.1654444796387 1526.0054113716833 495.4913152194488Q1524.108645268525 492.81718595925884 1524.108645268525 488.5572358587237L1524.108645268525 488.5572358587237Q1524.108645268525 485.63435038828356 1524.792724846713 482.74255944412465L1524.792724846713 482.74255944412465Q1525.0103865306824 482.27614154990545 1525.44570989862 480.59703713071644Q1525.9121277928393 478.9179327115274 1526.782774528715 476.6791268192754L1526.782774528715 476.6791268192754Q1523.6733219005873 481.6231564979986 1518.8536703269892 487.5311164914415Q1514.0340187533907 493.4701710111657 1508.2193423387916 496.39305648160587L1508.2193423387916 496.39305648160587Q1504.8611335004139 497.9477827956698 1501.5029246620356 497.9477827956698L1501.5029246620356 497.9477827956698Q1497.0253128775316 497.9477827956698 1494.3200890910603 494.49629037844784Q1491.6459598308702 491.01370343494466 1491.6459598308702 484.7326091261265L1491.6459598308702 484.7326091261265Q1491.6459598308702 479.6020122897155 1493.8847657231227 473.66295776999135Q1496.1235716153747 467.7239032502672 1500.3835217159099 461.4739034677302L1500.3835217159099 461.4739034677302Q1503.0576509760995 457.43161505116404 1507.3176010766347 453.63808284484804Q1511.5775511771699 449.81345611225083 1516.490486329612 447.3569885360298Q1521.4345160083353 444.90052095980883 1525.9121277928393 444.90052095980883L1525.9121277928393 444.90052095980883Q1530.3897395773433 444.90052095980883 1533.4991922054714 447.3569885360298Q1536.6397393598804 449.81345611225083 1536.8574010438492 454.7574857909741L1536.8574010438492 454.7574857909741Q1536.8574010438492 455.41047084288095 1536.2976995707863 455.752510631975Q1535.737998097723 456.0945504210691 1535.3026747297854 455.192809158912L1535.3026747297854 455.192809158912Q1532.6285454695953 449.160471060344 1526.5651128447462 449.160471060344L1526.5651128447462 449.160471060344Q1522.553918954461 449.160471060344 1518.076307169957 452.8296251615348Q1513.598695385453 456.52987378900696 1509.3387452849179 462.1268885196371Q1505.0787951843827 467.7239032502672 1501.9382480299737 473.3209179808973L1501.9382480299737 473.3209179808973Q1499.2641187697836 478.26494765962053 1498.0203377185326 482.27614154990545Q1496.8076511935628 486.3184299664716 1496.8076511935628 489.21022091063054L1496.8076511935628 489.21022091063054Q1496.8076511935628 495.27365353547987 1501.5029246620356 495.27365353547987L1501.5029246620356 495.27365353547987Q1503.959392238257 495.27365353547987 1506.882277708697 493.6878326951346L1506.882277708697 493.6878326951346Q1509.5564069688867 492.1331063810707 1513.4743172803278 488.09081796450454Q1517.392227591769 484.0796240742196 1521.31013790321 479.13559439549635Q1525.2280482146512 474.22265924305435 1528.461878947904 469.5273857745813Q1531.7268042074384 464.8321123061083 1533.2815305215022 462.1268885196371L1533.2815305215022 462.1268885196371Q1536.6397393598804 456.52987378900696 1540.2156098822275 452.2699236884718Q1543.8225749308558 448.041068114218 1547.3984454532028 448.041068114218L1547.3984454532028 448.041068114218Q1549.1708334512355 448.041068114218 1549.1708334512355 448.91171485009374L1549.1708334512355 448.91171485009374Q1549.1708334512355 449.81345611225083 1548.3001867153598 450.7151973744079L1548.3001867153598 450.7151973744079Q1543.8225749308558 456.0945504210691 1539.9046646194147 463.3706695708882Q1535.9867543079736 470.6467887207074 1533.4059086266275 477.14554471349453Q1530.8250629452814 483.6132061800004 1530.3897395773433 486.9714150183785L1530.3897395773433 486.9714150183785Q1529.7056599991552 494.1542505893538 1534.6185951515972 494.1542505893538L1534.6185951515972 494.1542505893538Q1535.3026747297854 494.1542505893538 1535.9867543079736 494.0298724842287Q1536.6397393598804 493.93658890538484 1537.5414806220374 493.6878326951346L1537.5414806220374 493.6878326951346Q1542.2367540905107 492.1331063810707 1546.7143658750147 487.87315628053557Q1551.1919776595187 483.6132061800004 1555.0166043921158 478.57589292243335Q1558.8101365984317 473.53857966486623 1561.266604174653 469.7450474585503L1561.266604174653 469.7450474585503Q1561.950683752841 468.8433061963932 1562.3860071207787 468.8433061963932L1562.3860071207787 468.8433061963932Q1563.0700866989669 468.8433061963932 1563.0700866989669 469.9627091425192L1563.0700866989669 469.9627091425192Q1563.0700866989669 470.6467887207074 1562.3860071207787 471.7661916668334L1562.3860071207787 471.7661916668334Q1560.8312808067149 474.00499755908544 1559.4942161766198 476.1194253462123Q1558.1260570202435 478.26494765962053 1556.7889923901485 480.03733565765344L1556.7889923901485 480.03733565765344Q1556.3536690222109 480.9390769198105 1555.6695894440227 481.6231564979986Q1555.0166043921158 482.27614154990545 1554.3325248139276 483.17788281206253L1554.3325248139276 483.17788281206253Q1551.4096393434875 486.75375333440957 1546.8387439801395 490.8893253298196Q1542.2367540905107 495.0559918515109 1537.7591423060062 496.82837984954375L1537.7591423060062 496.82837984954375Q1534.4009334676284 498.1654444796387 1531.9444658914072 498.1654444796387ZM1604.7056573895989 501.3059916340478L1604.7056573895989 501.3059916340478Q1603.150931075535 501.3059916340478 1601.5651102351899 500.7462901609848Q1600.0103839211256 500.1865886879218 1600.6633689730324 499.53360363601496L1600.6633689730324 499.53360363601496L1713.7230665317607 371.9216677776484Q1714.4071461099488 371.0199265154913 1716.8636136861696 371.0199265154913L1716.8636136861696 371.0199265154913Q1718.667096210484 371.0199265154913 1720.128538945704 371.57962798855436Q1721.558887154643 372.13932946161736 1720.905902102736 372.7923145135242L1720.905902102736 372.7923145135242L1607.8462045440078 500.4042503718908Q1607.1621249658197 501.3059916340478 1604.7056573895989 501.3059916340478ZM1682.3797840402322 488.5572358587237L1682.3797840402322 488.5572358587237Q1681.5091373043565 488.5572358587237 1681.5091373043565 487.65549459656665L1681.5091373043565 487.65549459656665Q1681.5091373043565 485.63435038828356 1683.7479431966085 484.5149474421575L1683.7479431966085 484.5149474421575Q1686.6397341407674 482.74255944412465 1692.4544105553664 478.8246491326836Q1698.3001814962468 474.90673882124247 1705.3275444358155 469.62066935342517Q1712.3860019016656 464.3656944118891 1718.667096210484 458.98634136522793L1718.667096210484 458.98634136522793Q1716.6459520022008 454.50872958072387 1711.950678533728 449.3781327443129Q1707.2554050652548 444.2164413816207 1702.4357534916567 439.5211679131477Q1697.6161019180586 434.82589444467465 1694.6932164476184 432.3694268684536L1694.6932164476184 432.3694268684536Q1693.5738135014922 431.4676856062965 1693.5738135014922 430.5659443441395L1693.5738135014922 430.5659443441395Q1693.5738135014922 429.8818647659514 1694.4755547636496 429.8818647659514L1694.4755547636496 429.8818647659514Q1695.1596343418373 429.8818647659514 1696.4966989719323 430.3482826601705L1696.4966989719323 430.3482826601705Q1696.4966989719323 430.3482826601705 1699.9792859154359 433.02241192036047Q1703.4307783326576 435.72763570683173 1708.468091590225 439.6455460182728Q1713.5054048477919 443.56345632971386 1718.5427181053587 447.5746502199988Q1723.580031362926 451.61693863656495 1726.9382402013043 454.2910678967549L1726.9382402013043 454.2910678967549Q1729.3947077775251 456.312212105038 1729.3947077775251 457.64927673513296L1729.3947077775251 457.64927673513296Q1729.3947077775251 458.98634136522793 1726.036498939147 461.4739034677302L1726.036498939147 461.4739034677302Q1715.7442107400439 468.19032114448635 1705.2342608569716 474.90673882124247Q1694.6932164476184 481.6231564979986 1683.499186986358 488.09081796450454L1683.499186986358 488.09081796450454Q1682.6285402504823 488.5572358587237 1682.3797840402322 488.5572358587237Z " fill="#7fffd4" transform="matrix(0.5059573930182986,0,0,0.5059573930182986,0,79.4302674480108)"/></g></svg>